<svg xmlns="http://www.w3.org/2000/svg"  viewBox="0 0 64 64" width="512px" height="512px"><linearGradient id="BW7iLVDCVUe49Pa_ojLHja" x1="32" x2="32" y1="9" y2="54.015" gradientUnits="userSpaceOnUse"><stop offset="0" stop-color="#1A6DFF"/><stop offset="1" stop-color="#C822FF"/></linearGradient><path fill="url(#BW7iLVDCVUe49Pa_ojLHja)" d="M50,55H14c-2.76,0-5-2.24-5-5V14c0-2.76,2.24-5,5-5h36c2.76,0,5,2.24,5,5v36	C55,52.76,52.76,55,50,55z M14,11c-1.65,0-3,1.35-3,3v36c0,1.65,1.35,3,3,3h36c1.65,0,3-1.35,3-3V14c0-1.65-1.35-3-3-3H14z"/><linearGradient id="BW7iLVDCVUe49Pa_ojLHjb" x1="32" x2="32" y1="17.234" y2="36.704" gradientUnits="userSpaceOnUse"><stop offset="0" stop-color="#8ab4ff"/><stop offset="1" stop-color="#e492ff"/></linearGradient><path fill="url(#BW7iLVDCVUe49Pa_ojLHjb)" d="M18.979,28.606l2.763,2.171l7.418-5.804C29.979,24.343,30.984,24,32.002,24 c1.015,0,2.016,0.341,2.82,0.959l7.437,5.818l2.763-2.171c0.63-0.495,0.992-1.238,0.992-2.04s-0.362-1.545-0.992-2.04 l-11.418-8.972c-0.943-0.742-2.263-0.742-3.206,0l-11.418,8.972c-0.63,0.495-0.992,1.238-0.992,2.04S18.348,28.111,18.979,28.606z"/><linearGradient id="BW7iLVDCVUe49Pa_ojLHjc" x1="32" x2="32" y1="17.234" y2="36.704" gradientUnits="userSpaceOnUse"><stop offset="0" stop-color="#8ab4ff"/><stop offset="1" stop-color="#e492ff"/></linearGradient><path fill="url(#BW7iLVDCVUe49Pa_ojLHjc)" d="M33.606,37.448l3.73-2.914L32,30.359l-5.336,4.175l3.732,2.916 c0.472,0.366,1.037,0.549,1.603,0.549C32.565,37.999,33.132,37.815,33.606,37.448z"/><linearGradient id="BW7iLVDCVUe49Pa_ojLHjd" x1="32" x2="32" y1="9" y2="54.015" gradientUnits="userSpaceOnUse"><stop offset="0" stop-color="#1A6DFF"/><stop offset="1" stop-color="#C822FF"/></linearGradient><path fill="url(#BW7iLVDCVUe49Pa_ojLHjd)" d="M31.998,49c-0.565,0-1.129-0.182-1.601-0.544l-11.416-8.932	c-0.63-0.482-0.996-1.221-0.996-2.024s0.366-1.543,1.005-2.031l11.401-8.921c0.95-0.731,2.268-0.73,3.211-0.005l11.417,8.933	c0.629,0.481,0.996,1.22,0.996,2.023c0,0.801-0.365,1.54-1.001,2.028l-11.405,8.924C33.133,48.817,32.565,49,31.998,49z M32.002,27.989c-0.134,0-0.27,0.042-0.38,0.127l-11.403,8.922c-0.205,0.156-0.234,0.356-0.234,0.462s0.029,0.306,0.224,0.454	l11.419,8.934c0.212,0.164,0.53,0.165,0.75-0.005l11.413-8.929c0.195-0.149,0.224-0.349,0.224-0.454s-0.029-0.306-0.224-0.454	l-11.418-8.934C32.266,28.03,32.135,27.989,32.002,27.989z"/></svg>