<svg xmlns="http://www.w3.org/2000/svg"  viewBox="0 0 64 64" width="512px" height="512px"><linearGradient id="7dZiPJic9bhWig6T0he8Sa" x1="7.705" x2="7.705" y1="6.486" y2="57.75" gradientUnits="userSpaceOnUse" spreadMethod="reflect"><stop offset="0" stop-color="#1A6DFF"/><stop offset="1" stop-color="#C822FF"/></linearGradient><path fill="url(#7dZiPJic9bhWig6T0he8Sa)" d="M8.154,35.853c-0.001-0.001-0.001-0.003-0.002-0.004c-0.137-1.095-0.205-2.309-0.205-3.683 c0-1.304,0.116-2.599,0.319-3.877c0-0.001-0.001-0.002-0.001-0.002c0.145-0.907,0.328-1.806,0.574-2.688 c0.147-0.519-0.157-1.057-0.675-1.201c-0.465-0.131-0.927,0.111-1.126,0.532l0,0.002c-0.023,0.049-0.058,0.089-0.073,0.143 c-0.336,1.205-0.58,2.434-0.741,3.678c0,0.002,0.001,0.004,0.001,0.005C6.079,29.883,6,31.022,6,32.166 c0,3.798,0.478,6.53,1.55,8.857c0.165,0.356,0.517,0.567,0.886,0.567c0.136,0,0.275-0.029,0.408-0.09 c0.488-0.226,0.701-0.805,0.477-1.295C8.745,38.957,8.365,37.547,8.154,35.853z"/><linearGradient id="7dZiPJic9bhWig6T0he8Sb" x1="30.103" x2="30.103" y1="23.37" y2="57.833" gradientUnits="userSpaceOnUse" spreadMethod="reflect"><stop offset="0" stop-color="#8ab4ff"/><stop offset="1" stop-color="#e492ff"/></linearGradient><path fill="url(#7dZiPJic9bhWig6T0he8Sb)" d="M30.845,53.504c-0.515-0.172-1.064,0.107-1.234,0.616l-0.867,2.6 c-0.17,0.511,0.107,1.064,0.616,1.234c0.104,0.034,0.208,0.049,0.309,0.049c0.408,0,0.789-0.259,0.924-0.667l0.867-2.6 C31.632,54.226,31.356,53.673,30.845,53.504z"/><linearGradient id="7dZiPJic9bhWig6T0he8Sc" x1="18.673" x2="18.673" y1="6.448" y2="57.834" gradientUnits="userSpaceOnUse" spreadMethod="reflect"><stop offset="0" stop-color="#1A6DFF"/><stop offset="1" stop-color="#C822FF"/></linearGradient><path fill="url(#7dZiPJic9bhWig6T0he8Sc)" d="M19.695,47.138c-0.477-0.108-0.934,0.168-1.103,0.611c-0.017,0.045-0.047,0.083-0.059,0.133 l-0.032,0.137c-0.358,1.445-1.534,4.393-1.546,4.423c-0.2,0.499,0.043,1.068,0.544,1.268c0.118,0.048,0.242,0.07,0.361,0.07 c0.386,0,0.753-0.231,0.905-0.612c0.048-0.121,1.13-2.836,1.565-4.452c0.019-0.074,0.045-0.159,0.064-0.228l0.044-0.189 C20.553,47.772,20.22,47.252,19.695,47.138z"/><linearGradient id="7dZiPJic9bhWig6T0he8Sd" x1="53.907" x2="53.907" y1="6.596" y2="57.75" gradientUnits="userSpaceOnUse" spreadMethod="reflect"><stop offset="0" stop-color="#1A6DFF"/><stop offset="1" stop-color="#C822FF"/></linearGradient><path fill="url(#7dZiPJic9bhWig6T0he8Sd)" d="M53.835,39.64c-0.012,0-0.022,0.008-0.034,0.008c-0.521,0.039-0.923,0.477-0.904,1.003 c0.004,0.087,0.004,0.181,0.008,0.268c0.038,1.09,0.061,2.23,0.061,3.433c0,0.538,0.437,0.975,0.975,0.975 c0.538,0,0.975-0.437,0.975-0.975c0-1.324-0.026-2.584-0.07-3.773C54.826,40.039,54.393,39.611,53.835,39.64z"/><linearGradient id="7dZiPJic9bhWig6T0he8Se" x1="45.155" x2="45.155" y1="6.482" y2="57.75" gradientUnits="userSpaceOnUse" spreadMethod="reflect"><stop offset="0" stop-color="#1A6DFF"/><stop offset="1" stop-color="#C822FF"/></linearGradient><path fill="url(#7dZiPJic9bhWig6T0he8Se)" d="M50.309,36.157c0,0,0.001-0.001,0.001-0.001c-0.234-3.104-0.625-5.422-0.952-6.937 c0,0,0,0,0,0c-0.142-0.653-0.27-1.173-0.368-1.527c-0.499-1.939-1.326-3.741-2.405-5.369c0,0-0.001,0.001-0.002,0.001 c-1.365-2.065-3.146-3.842-5.286-5.193c-0.455-0.287-1.057-0.152-1.346,0.304c-0.287,0.455-0.151,1.057,0.304,1.346 c1.878,1.186,3.446,2.742,4.66,4.562c0.001,0,0.001-0.001,0.002-0.001c0.989,1.482,1.749,3.136,2.211,4.937 c0.13,0.472,0.324,1.263,0.527,2.344c0.315,1.674,0.647,4.078,0.81,7.194c0,0-0.001,0.001-0.001,0.001 c0.117,2.234,0.141,4.833,0.003,7.798c0.018-0.015,0.035-0.031,0.053-0.046c-0.018,0.015-0.033,0.032-0.051,0.047 c-0.074,1.61-0.191,3.314-0.373,5.137c-0.055,0.536,0.337,1.014,0.872,1.067c0.032,0.004,0.066,0.005,0.099,0.005 c0.494,0,0.919-0.376,0.969-0.878c0.26-2.602,0.398-4.988,0.45-7.172c-0.016,0.016-0.035,0.031-0.051,0.047 c0.016-0.016,0.034-0.032,0.05-0.048C50.557,40.858,50.472,38.321,50.309,36.157z"/><linearGradient id="7dZiPJic9bhWig6T0he8Sf" x1="30.648" x2="30.648" y1="6.42" y2="57.833" gradientUnits="userSpaceOnUse" spreadMethod="reflect"><stop offset="0" stop-color="#1A6DFF"/><stop offset="1" stop-color="#C822FF"/></linearGradient><path fill="url(#7dZiPJic9bhWig6T0he8Sf)" d="M32,18.67c-4.49,0-8.46,2.27-10.88,5.72c-1.53,2.2-2.45,4.88-2.45,7.77v0.04 c0.01,1.23,0.11,2.14,0.23,3.18c0.13,1.18,0.29,2.58,0.37,4.98c0.03,0.87,0.05,1.85,0.05,3.02c0,0.54,0.44,0.97,0.98,0.97 c0.54,0,0.97-0.44,0.97-0.98c0-0.74-0.01-1.4-0.02-2.02c-0.07-3.13-0.26-4.81-0.42-6.2c-0.07-0.66-0.14-1.25-0.17-1.88 c-0.02-0.35-0.04-0.7-0.04-1.11c0-2.63,0.89-5.06,2.36-7c2.08-2.75,5.34-4.54,9.02-4.54c3.48,0,6.72,1.58,8.89,4.34 c0.06,0.07,0.13,0.12,0.2,0.17c0.35,0.25,0.82,0.27,1.17,0c0.2-0.16,0.32-0.38,0.35-0.61c0.05-0.26-0.01-0.54-0.18-0.76 C39.88,20.52,36.08,18.67,32,18.67z"/><linearGradient id="7dZiPJic9bhWig6T0he8Sg" x1="23.592" x2="23.592" y1="23.508" y2="57.75" gradientUnits="userSpaceOnUse" spreadMethod="reflect"><stop offset="0" stop-color="#8ab4ff"/><stop offset="1" stop-color="#e492ff"/></linearGradient><path fill="url(#7dZiPJic9bhWig6T0he8Sg)" d="M25.48,42.84c0.14-3.01-0.15-5.62-0.39-7.73c0-0.06-0.01-0.11-0.02-0.17 c-0.12-1.09-0.22-2.04-0.22-2.78c0-1.69,0.55-3.28,1.59-4.59c0.33-0.43,0.26-1.04-0.16-1.37c-0.06-0.05-0.13-0.07-0.2-0.1 c-0.11-0.05-0.23-0.08-0.35-0.09c-0.31-0.02-0.62,0.09-0.82,0.35c-1.3,1.63-2.01,3.7-2.01,5.8c0,0.62,0.06,1.35,0.15,2.12 c-0.01,0-0.01,0-0.01,0c0.04,0.35,0.07,0.67,0.11,1.05c0.22,1.91,0.48,4.25,0.4,6.94c-0.07,2.23-0.38,4.7-1.15,7.38 c-0.44,1.5-1.01,3.06-1.77,4.69c-0.23,0.49-0.02,1.07,0.47,1.3c0.13,0.06,0.27,0.09,0.41,0.09c0.37,0,0.72-0.21,0.88-0.56 c0.79-1.68,1.39-3.3,1.85-4.85c0.79-2.7,1.14-5.21,1.24-7.47C25.48,42.85,25.48,42.85,25.48,42.84z"/><linearGradient id="7dZiPJic9bhWig6T0he8Sh" x1="35.401" x2="35.401" y1="23.415" y2="57.75" gradientUnits="userSpaceOnUse" spreadMethod="reflect"><stop offset="0" stop-color="#8ab4ff"/><stop offset="1" stop-color="#e492ff"/></linearGradient><path fill="url(#7dZiPJic9bhWig6T0he8Sh)" d="M36.77,45c-0.55-0.03-1,0.38-1.03,0.92c0,0.03-0.15,2.3-0.89,5.42 c-0.38,1.61-0.91,3.45-1.67,5.32c-0.2,0.5,0.04,1.07,0.54,1.27c0.12,0.05,0.24,0.07,0.36,0.07c0.39,0,0.75-0.23,0.91-0.61 c0.93-2.29,1.54-4.51,1.94-6.37c0.62-2.84,0.75-4.85,0.76-4.99C37.72,45.5,37.31,45.04,36.77,45z"/><linearGradient id="7dZiPJic9bhWig6T0he8Si" x1="44.705" x2="44.705" y1="6.481" y2="57.75" gradientUnits="userSpaceOnUse" spreadMethod="reflect"><stop offset="0" stop-color="#1A6DFF"/><stop offset="1" stop-color="#C822FF"/></linearGradient><path fill="url(#7dZiPJic9bhWig6T0he8Si)" d="M45.776,31.923c-0.047-0.265-0.095-0.529-0.144-0.77c-0.195-0.953-0.441-1.868-0.731-2.719 c-0.173-0.511-0.729-0.783-1.238-0.609c-0.51,0.174-0.783,0.728-0.609,1.238c0.264,0.774,0.488,1.608,0.667,2.482 c0.087,0.424,0.169,0.909,0.248,1.421c0.308,1.997,0.542,4.615,0.581,7.502c0.035,2.562-0.088,5.324-0.45,8.036 c-0.001,0-0.001,0.001-0.002,0.001c-0.257,1.94-0.633,3.854-1.169,5.643c-0.155,0.515,0.138,1.058,0.654,1.214 c0.092,0.027,0.187,0.04,0.28,0.04c0.419,0,0.807-0.272,0.934-0.696c0.71-2.367,1.158-4.909,1.421-7.451 c0.001,0,0.001-0.001,0.002-0.001c0.283-2.736,0.347-5.46,0.267-7.964C46.395,36.425,46.12,33.86,45.776,31.923z"/><linearGradient id="7dZiPJic9bhWig6T0he8Sj" x1="31.179" x2="31.179" y1="23.37" y2="57.834" gradientUnits="userSpaceOnUse" spreadMethod="reflect"><stop offset="0" stop-color="#8ab4ff"/><stop offset="1" stop-color="#e492ff"/></linearGradient><path fill="url(#7dZiPJic9bhWig6T0he8Sj)" d="M29.42,35.77c-0.05-0.54-0.11-1.05-0.16-1.51c-0.1-0.91-0.19-1.63-0.19-2.1 c0-1.7,1.32-3.09,2.93-3.09c1.32,0,2.12,0.58,2.87,2.06c0.2,0.41,0.56,2.2,0.84,4.47v0.01c0.19,1.63,0.34,3.52,0.35,5.33 c0.01,0.54,0.44,0.97,0.98,0.97c0.53,0,0.97-0.43,0.97-0.96c0-0.01,0-0.01,0-0.02c-0.01-1.82-0.16-3.85-0.38-5.66 c-0.28-2.35-0.68-4.33-1.02-5.01c-0.67-1.34-1.88-3.14-4.61-3.14c-2.69,0-4.88,2.26-4.88,5.04c0,0.58,0.09,1.35,0.2,2.32 c0.04,0.31,0.07,0.65,0.11,0.99c0.22,2.03,0.44,4.7,0.21,7.84c-0.16,2.28-0.56,4.82-1.36,7.54c-0.46,1.6-1.07,3.25-1.84,4.96 c-0.23,0.49-0.01,1.07,0.48,1.29c0.13,0.06,0.27,0.09,0.4,0.09c0.37,0,0.73-0.21,0.89-0.57c0.85-1.87,1.51-3.69,2.01-5.42 c0.79-2.75,1.19-5.31,1.36-7.62C29.81,40.49,29.63,37.84,29.42,35.77z"/><linearGradient id="7dZiPJic9bhWig6T0he8Sk" x1="32.318" x2="32.318" y1="23.35" y2="57.833" gradientUnits="userSpaceOnUse" spreadMethod="reflect"><stop offset="0" stop-color="#8ab4ff"/><stop offset="1" stop-color="#e492ff"/></linearGradient><path fill="url(#7dZiPJic9bhWig6T0he8Sk)" d="M33.59,35.82c-0.19-2.18-0.44-3.55-0.47-3.68c-0.1-0.53-0.61-0.88-1.15-0.77 c-0.52,0.1-0.87,0.61-0.76,1.14c0,0.03,0.24,1.3,0.42,3.37c0.17,1.98,0.28,4.71,0.07,7.81c-0.13,1.93-0.37,4.01-0.82,6.15 c-0.11,0.53,0.23,1.05,0.76,1.15c0.07,0.02,0.13,0.03,0.2,0.03c0.45,0,0.86-0.32,0.95-0.78c0.48-2.32,0.75-4.55,0.88-6.62 C33.87,40.53,33.76,37.83,33.59,35.82z"/><linearGradient id="7dZiPJic9bhWig6T0he8Sl" x1="20.633" x2="20.633" y1="6.5" y2="57.75" gradientUnits="userSpaceOnUse" spreadMethod="reflect"><stop offset="0" stop-color="#1A6DFF"/><stop offset="1" stop-color="#C822FF"/></linearGradient><path fill="url(#7dZiPJic9bhWig6T0he8Sl)" d="M10.53,21.22c0.58-1.15,1.25-2.22,1.98-3.24c-0.07-0.09-0.07-0.09,0.01,0 c1.34-1.87,2.92-3.52,4.69-4.91c4.07-3.2,9.11-5.05,14.48-5.12c0.54-0.01,0.97-0.45,0.96-0.99C32.64,6.43,32.21,6,31.67,6 c0,0,0,0-0.01,0c-5.98,0.08-11.59,2.19-16.06,5.86c-1.61,1.33-3.07,2.86-4.35,4.56c-0.93,1.25-1.78,2.58-2.5,4.01l-0.04,0.08 c-0.24,0.48,0,0.99,0.48,1.23c0.12,0.06,0.25,0.09,0.38,0.09C9.96,21.83,10.35,21.58,10.53,21.22z"/><linearGradient id="7dZiPJic9bhWig6T0he8Sm" x1="38.955" x2="38.955" y1="6.595" y2="57.681" gradientUnits="userSpaceOnUse" spreadMethod="reflect"><stop offset="0" stop-color="#1A6DFF"/><stop offset="1" stop-color="#C822FF"/></linearGradient><path fill="url(#7dZiPJic9bhWig6T0he8Sm)" d="M53.55,36.71h0.09c0.54-0.05,0.94-0.53,0.89-1.06c-0.15-1.59-0.33-2.97-0.51-4.17 c-0.41-2.76-0.84-4.5-1-5.1c-0.08-0.29-0.19-0.57-0.27-0.85c-0.68-2.13-1.64-4.11-2.87-5.89c-1.42-2.05-3.18-3.82-5.17-5.27 c-1.81-1.31-3.82-2.35-5.96-3.06c-2.14-0.71-4.41-1.09-6.75-1.09c-2.76,0-5.46,0.52-8.01,1.53c-0.5,0.2-0.74,0.77-0.55,1.27 c0.2,0.5,0.77,0.74,1.27,0.54c2.32-0.92,4.77-1.39,7.29-1.39c3.9,0,7.6,1.16,10.73,3.19c2.24,1.45,4.18,3.35,5.69,5.59 c1.2,1.79,2.13,3.79,2.72,5.96c0.02,0.08,0.06,0.24,0.11,0.43c0.23,0.94,0.72,3.15,1.12,6.49c0.08,0.63,0.15,1.29,0.21,2 C52.63,36.33,53.06,36.71,53.55,36.71z"/><linearGradient id="7dZiPJic9bhWig6T0he8Sn" x1="25.418" x2="25.418" y1="6.533" y2="57.835" gradientUnits="userSpaceOnUse" spreadMethod="reflect"><stop offset="0" stop-color="#1A6DFF"/><stop offset="1" stop-color="#C822FF"/></linearGradient><path fill="url(#7dZiPJic9bhWig6T0he8Sn)" d="M17.1,38.99c-0.08-0.88-0.19-1.71-0.31-2.53c-0.2-1.4-0.39-2.73-0.39-4.3 c0-0.49,0.03-0.97,0.07-1.44c0.25-2.72,1.17-5.24,2.61-7.38c1.9-2.84,4.71-5.02,7.99-6.12c1.55-0.53,3.21-0.82,4.93-0.82 c1.35,0,2.68,0.17,3.98,0.51c0.52,0.14,1.05-0.17,1.19-0.69c0.13-0.52-0.17-1.05-0.69-1.19c-1.46-0.39-2.96-0.58-4.48-0.58 c-2.89,0-5.61,0.72-8.02,1.97c-2.65,1.38-4.91,3.42-6.57,5.9c-1.36,2.06-2.29,4.42-2.71,6.95c-0.15,0.95-0.25,1.91-0.25,2.89 c0,1.71,0.21,3.17,0.41,4.57c0.02,0.19,0.05,0.37,0.08,0.56c0.31,2.22,0.54,4.45-0.05,7.75v0.01c-0.25,1.36-0.63,2.89-1.21,4.69 c-0.16,0.51,0.12,1.06,0.63,1.23c0.1,0.03,0.2,0.05,0.3,0.05c0.41,0,0.79-0.27,0.93-0.68c0.46-1.45,0.81-2.74,1.06-3.92 c0.45-2.08,0.6-3.79,0.6-5.29C17.2,40.37,17.16,39.66,17.1,38.99z"/><linearGradient id="7dZiPJic9bhWig6T0he8So" x1="35.181" x2="35.181" y1="23.4" y2="57.75" gradientUnits="userSpaceOnUse" spreadMethod="reflect"><stop offset="0" stop-color="#8ab4ff"/><stop offset="1" stop-color="#e492ff"/></linearGradient><path fill="url(#7dZiPJic9bhWig6T0he8So)" d="M41.76,33.99c-0.3-2.54-0.7-4.03-0.86-4.55c-0.41-1.36-1.15-2.57-2.09-3.57 c-0.87-0.92-1.91-1.66-3.06-2.17c-1.16-0.52-2.43-0.8-3.75-0.8c-1,0-1.98,0.16-2.91,0.48l-0.19,0.07c-0.5,0.18-0.76,0.74-0.58,1.25 c0.19,0.5,0.75,0.76,1.25,0.58l0.15-0.05c0.73-0.25,1.5-0.38,2.28-0.38c1.63,0,3.19,0.58,4.46,1.54c1.2,0.91,2.14,2.18,2.58,3.65 c0.11,0.35,0.54,1.88,0.83,4.64h0.01c0.11,1.09,0.21,2.36,0.25,3.85c0.04,1.31,0.02,2.6-0.03,3.87c-0.11,2.8-0.42,5.5-0.93,8.08 c-0.39,1.98-0.9,3.9-1.53,5.74c-0.18,0.51,0.09,1.07,0.6,1.24c0.1,0.04,0.21,0.06,0.32,0.06c0.4,0,0.78-0.26,0.92-0.66 c0.78-2.26,1.37-4.63,1.81-7.09c-0.13,0.05-0.27,0.1-0.4,0.14c0.14-0.05,0.27-0.1,0.4-0.15c0.45-2.59,0.71-5.29,0.78-8.08 c0.02-0.62,0.03-1.24,0.03-1.86c0-0.45-0.01-0.9-0.02-1.35C42.03,36.7,41.91,35.23,41.76,33.99z"/><linearGradient id="7dZiPJic9bhWig6T0he8Sp" x1="15.547" x2="15.547" y1="6.495" y2="57.667" gradientUnits="userSpaceOnUse" spreadMethod="reflect"><stop offset="0" stop-color="#1A6DFF"/><stop offset="1" stop-color="#C822FF"/></linearGradient><path fill="url(#7dZiPJic9bhWig6T0he8Sp)" d="M12.28,34.62c-0.06-0.76-0.11-1.57-0.11-2.46c0-1.64,0.21-3.25,0.59-4.81 c0.57-2.28,1.52-4.45,2.83-6.39c1.31-1.95,2.95-3.67,4.89-5.07c0.25-0.18,0.37-0.44,0.39-0.72c0.02-0.22-0.03-0.45-0.17-0.64 c-0.31-0.44-0.92-0.54-1.36-0.23c-0.02,0.02-0.04,0.04-0.07,0.06c-2.02,1.47-3.75,3.27-5.14,5.29c-1.25,1.8-2.22,3.78-2.88,5.87 v0.01c-0.64,2.04-0.99,4.18-1.02,6.37c0,0.09-0.01,0.17-0.01,0.26c0,2.2,0.23,3.91,0.45,5.57c0.14,1.05,0.27,2.04,0.34,3.07 c0.03,0.41,0.04,0.83,0.04,1.26c0,1.28-0.13,2.68-0.48,4.37c-0.11,0.52,0.22,1.04,0.75,1.15c0.07,0.02,0.14,0.02,0.2,0.02 c0.45,0,0.86-0.31,0.96-0.77c0.28-1.37,0.43-2.56,0.48-3.66c0.02-0.4,0.03-0.79,0.03-1.17c0-1.63-0.19-3.06-0.38-4.53 C12.48,36.57,12.37,35.63,12.28,34.62z"/><linearGradient id="7dZiPJic9bhWig6T0he8Sq" x1="46.786" x2="46.786" y1="6.58" y2="57.709" gradientUnits="userSpaceOnUse" spreadMethod="reflect"><stop offset="0" stop-color="#1A6DFF"/><stop offset="1" stop-color="#C822FF"/></linearGradient><path fill="url(#7dZiPJic9bhWig6T0he8Sq)" d="M57.77,28.82c-0.17-1.33-0.43-2.65-0.8-3.92c-0.39-1.36-0.87-2.67-1.47-3.93v-0.01 c-0.76-1.61-1.69-3.12-2.75-4.54c-1.26-1.69-2.72-3.22-4.35-4.55c-1.64-1.35-3.46-2.51-5.42-3.43c-1.95-0.92-4.04-1.6-6.25-2.01 c-0.53-0.1-1.04,0.25-1.14,0.78c-0.1,0.53,0.25,1.04,0.78,1.14c3.92,0.72,7.45,2.39,10.41,4.72c1.79,1.41,3.38,3.06,4.7,4.91 c1.15,1.6,2.11,3.35,2.84,5.2c0.65,1.63,1.13,3.34,1.41,5.11c0.2,1.27,0.32,2.56,0.32,3.88v0.15c0,0.47,0.34,0.84,0.77,0.94 c0.07,0.01,0.14,0.04,0.21,0.04c0.54,0,0.97-0.44,0.97-0.98v-0.15C58,31.03,57.91,29.92,57.77,28.82z"/></svg>