<svg xmlns="http://www.w3.org/2000/svg"  viewBox="0 0 64 64" width="512px" height="512px"><linearGradient id="TtFPR16SCpR4xL2N9UpKta" x1="14" x2="14" y1="14" y2="16" gradientUnits="userSpaceOnUse" spreadMethod="reflect"><stop offset="0" stop-color="#8ab4ff"/><stop offset="1" stop-color="#e492ff"/></linearGradient><path fill="url(#TtFPR16SCpR4xL2N9UpKta)" d="M14 14A1 1 0 1 0 14 16A1 1 0 1 0 14 14Z"/><linearGradient id="TtFPR16SCpR4xL2N9UpKtb" x1="17" x2="17" y1="14" y2="16" gradientUnits="userSpaceOnUse" spreadMethod="reflect"><stop offset="0" stop-color="#8ab4ff"/><stop offset="1" stop-color="#e492ff"/></linearGradient><path fill="url(#TtFPR16SCpR4xL2N9UpKtb)" d="M17 14A1 1 0 1 0 17 16A1 1 0 1 0 17 14Z"/><linearGradient id="TtFPR16SCpR4xL2N9UpKtc" x1="32" x2="32" y1="11" y2="53" gradientUnits="userSpaceOnUse" spreadMethod="reflect"><stop offset="0" stop-color="#1A6DFF"/><stop offset="1" stop-color="#C822FF"/></linearGradient><path fill="url(#TtFPR16SCpR4xL2N9UpKtc)" d="M53.015,11H10.985C9.339,11,8,12.339,8,13.985v36.029C8,51.661,9.339,53,10.985,53h42.029 C54.661,53,56,51.661,56,50.015V13.985C56,12.339,54.661,11,53.015,11z M10.985,51C10.442,51,10,50.558,10,50.015V37h21v14H10.985z M54,50.015C54,50.558,53.558,51,53.015,51H33V37h21V50.015z M54,35H33h-2H10V19h44V35z M54,17H10v-3.015 C10,13.442,10.442,13,10.985,13h42.029C53.558,13,54,13.442,54,13.985V17z"/><linearGradient id="TtFPR16SCpR4xL2N9UpKtd" x1="21" x2="21" y1="39" y2="41" gradientUnits="userSpaceOnUse" spreadMethod="reflect"><stop offset="0" stop-color="#8ab4ff"/><stop offset="1" stop-color="#e492ff"/></linearGradient><path fill="url(#TtFPR16SCpR4xL2N9UpKtd)" d="M13 39H29V41H13z"/><linearGradient id="TtFPR16SCpR4xL2N9UpKte" x1="21" x2="21" y1="43" y2="45" gradientUnits="userSpaceOnUse" spreadMethod="reflect"><stop offset="0" stop-color="#8ab4ff"/><stop offset="1" stop-color="#e492ff"/></linearGradient><path fill="url(#TtFPR16SCpR4xL2N9UpKte)" d="M13 43H29V45H13z"/><linearGradient id="TtFPR16SCpR4xL2N9UpKtf" x1="17.5" x2="17.5" y1="47" y2="49" gradientUnits="userSpaceOnUse" spreadMethod="reflect"><stop offset="0" stop-color="#8ab4ff"/><stop offset="1" stop-color="#e492ff"/></linearGradient><path fill="url(#TtFPR16SCpR4xL2N9UpKtf)" d="M13 47H22V49H13z"/></svg>